PathFileType  4	(X/Y/Z) C:\Users\antoi\Documents\MyRepositories\mobilecap\ResultsAnalysis
DataRate	CameraRate	NumFrames	NumMarkers	Units	OrigDataRate	OrigDataStartFrame	OrigNumFrames
100.0	100.0	4	51	mm	100.0	58	154
Frame#	Time	r_knee			r_shank_antsup			r_ankle			r_calc			r_5meta			r_toe			L_knee			L_shank_antsup			L_ankle			L_calc			L_5meta			L_toe			r_sh2			r_sh3			r_sh4			L_sh2			L_sh3			r_thigh1			r_thigh2			r_thigh3			r_thigh4			r_thigh5			L_thigh1			L_thigh2			L_thigh3			L_thigh4			r.ASIS			r.PSIS			L.ASIS			L.PSIS			C7			R_Shoulder			L_Shoulder			R_Sternum			L_Sternum			R_humerus			R_elbow_med			R_elbow_lat			R_forearm			R_wrist_radius			R_wrist_ulna			L_humerus			L_elbow_med			L_elbow_lat			L_forearm			L_wrist_radius			L_wrist_ulna			R_HJC			L_HJC			R_HJC_reg			L_HJC_reg			
		X1	Y1	Z1	X2	Y2	Z2	X3	Y3	Z3	X4	Y4	Z4	X5	Y5	Z5	X6	Y6	Z6	X7	Y7	Z7	X8	Y8	Z8	X9	Y9	Z9	X10	Y10	Z10	X11	Y11	Z11	X12	Y12	Z12	X13	Y13	Z13	X14	Y14	Z14	X15	Y15	Z15	X16	Y16	Z16	X17	Y17	Z17	X18	Y18	Z18	X19	Y19	Z19	X20	Y20	Z20	X21	Y21	Z21	X22	Y22	Z22	X23	Y23	Z23	X24	Y24	Z24	X25	Y25	Z25	X26	Y26	Z26	X27	Y27	Z27	X28	Y28	Z28	X29	Y29	Z29	X30	Y30	Z30	X31	Y31	Z31	X32	Y32	Z32	X33	Y33	Z33	X34	Y34	Z34	X35	Y35	Z35	X36	Y36	Z36	X37	Y37	Z37	X38	Y38	Z38	X39	Y39	Z39	X40	Y40	Z40	X41	Y41	Z41	X42	Y42	Z42	X43	Y43	Z43	X44	Y44	Z44	X45	Y45	Z45	X46	Y46	Z46	X47	Y47	Z47	X48	Y48	Z48	X49	Y49	Z49	X50	Y50	Z50	X51	Y51	Z51	

58	0.57000000	273.56244	474.50651	-129.56280	292.42971	404.26852	-137.33616	154.23751	101.02721	-167.99643	95.45994	76.52522	-210.14541	254.77539	42.70122	-137.56584	300.69864	54.64595	-190.41715	588.64348	465.89516	-380.61355	654.45177	414.21750	-361.21002	742.50074	113.84429	-380.09149	707.37131	48.16425	-345.17723	861.18197	121.68967	-388.09847	883.60286	164.42044	-329.46684	251.53485	300.03807	-133.86185	226.21510	430.80013	-108.87541	174.34119	326.34307	-111.72066	584.84678	399.50397	-417.29460	633.82242	286.79438	-427.53279	386.99552	698.07484	-70.85687	360.03284	590.28293	-95.50360	291.68966	585.68106	-98.02375	276.72563	725.24430	-81.79556	246.59575	617.99393	-119.45275	521.21538	729.18882	-424.63817	573.47154	602.97139	-398.67038	419.70901	685.51204	-437.23330	466.76889	563.77159	-393.56493	477.74060	901.50170	-126.03692	279.19946	939.91048	-238.23804	508.90561	894.08030	-345.63969	295.23287	932.07122	-318.27937	383.12974	1374.51531	-242.61938	436.24337	1334.04493	-94.55877	437.94709	1341.85348	-382.16409	506.14955	1304.22707	-215.40364	507.69495	1305.35639	-254.43292	479.59963	1223.26379	-43.80716	432.55723	1003.02306	-39.47097	475.75135	1021.92102	7.56223	561.28108	979.36797	-5.07369	652.64001	870.08189	-35.63624	632.04632	853.10007	-5.17276	442.74910	1246.64131	-459.17766	397.78528	1025.71033	-473.86564	417.44818	1056.69693	-529.09196	486.57885	980.05767	-563.78319	538.78042	863.07514	-581.11692	507.20150	856.31913	-604.40994	389.64420	818.90150	-145.06983	424.22894	812.04702	-349.55856	402.14985	842.37787	-166.15800	430.78743	828.37592	-309.12128	
59	0.58000000	281.30426	474.45471	-129.89306	299.44064	403.65107	-137.47492	155.57027	103.01843	-167.90663	96.35500	79.09740	-210.26188	255.31943	43.07009	-137.46630	301.28767	54.17892	-190.25511	599.58513	463.40586	-379.62821	664.28324	410.49056	-361.41798	749.42603	109.74977	-378.08845	713.83545	45.21407	-342.60010	867.96487	116.54944	-387.60506	891.67436	159.49349	-329.56668	256.53637	300.27521	-133.85970	233.71807	431.50366	-109.26694	179.75710	328.10363	-112.01366	593.51989	395.75307	-415.93896	641.16904	282.49980	-425.51263	396.09632	697.25395	-70.99830	368.45871	589.70110	-95.39444	300.16762	585.44913	-98.54873	286.20361	725.33103	-83.16056	255.35256	618.02588	-120.44606	534.70395	728.03935	-423.29823	586.36679	601.64238	-396.97490	433.45106	684.42663	-437.75946	479.65731	562.26675	-393.60664	488.64461	900.13644	-125.53800	291.17763	938.40617	-240.19994	521.60001	892.20553	-345.05584	307.89709	930.45740	-320.10201	395.31830	1372.97517	-246.43929	447.09657	1333.76692	-97.44657	451.34274	1338.76133	-385.31309	518.06113	1302.67984	-217.40467	520.06402	1303.54264	-256.48238	489.12419	1222.89772	-45.39817	440.41263	1002.93693	-40.40775	483.35680	1021.84623	6.97475	568.74161	978.94021	-5.15690	659.97747	869.45892	-35.08373	639.23366	852.57157	-4.57813	456.59151	1242.71089	-461.27393	411.49604	1021.57629	-474.09899	431.76212	1051.91779	-529.37676	500.70524	974.81912	-562.77311	552.52547	857.25318	-578.65958	521.00766	850.84895	-602.48038	400.48843	817.58379	-145.51934	437.13191	810.20443	-349.63740	413.31216	840.82616	-166.26367	443.19720	826.61834	-309.08494	
60	0.59000000	289.51751	474.32028	-130.26547	306.86867	402.96494	-137.64321	157.00262	105.12830	-167.80539	97.41567	81.92270	-210.36520	255.96185	43.50488	-137.36096	301.92535	53.73506	-190.08829	610.65074	460.92072	-378.44865	674.03534	406.53818	-361.54424	755.02316	105.31679	-376.17094	718.38847	42.46544	-340.46333	873.53004	110.20991	-386.92134	898.68534	153.02914	-329.29101	261.87006	300.50265	-133.88100	241.66820	432.16185	-109.65539	185.56588	329.88587	-112.31354	601.88159	392.04375	-414.33711	647.65574	278.03872	-423.30545	405.57819	696.38879	-71.24948	377.32184	589.06498	-95.37909	309.10500	585.09315	-99.09028	296.07312	725.23035	-84.49044	264.61345	617.92377	-121.45720	548.17567	726.90360	-422.09674	599.48333	600.43383	-395.39322	447.19182	683.21747	-438.24222	492.82131	560.73200	-393.52125	499.78961	898.75203	-125.27672	303.35744	936.98291	-241.94149	534.32505	890.41707	-344.67084	320.63799	928.99207	-321.70927	407.70619	1371.39666	-250.43649	458.16407	1333.60694	-100.54422	464.81957	1335.59589	-388.62073	530.14369	1301.17407	-219.61022	532.59208	1301.76471	-258.74592	498.70403	1222.67659	-47.04467	447.93432	1003.06464	-41.42947	490.63567	1021.93236	6.38254	575.82621	978.54644	-5.17633	666.86048	868.77818	-34.39374	645.88274	851.99126	-3.87188	470.46718	1238.67328	-463.46352	425.39177	1017.33412	-474.24124	446.07842	1047.02499	-529.62084	514.83822	969.47052	-561.70297	566.31465	851.35881	-576.10699	534.80760	845.29333	-600.47561	411.61254	816.26677	-146.04466	449.99125	808.48818	-349.83249	424.73112	839.27323	-166.52198	455.64119	824.98019	-309.20714	
61	0.60000000	298.21120	474.10085	-130.66688	314.67845	402.23038	-137.82076	158.57236	107.31651	-167.72714	98.67942	85.02629	-210.48019	256.60070	43.89592	-137.26406	302.61608	53.32426	-189.91027	621.68975	458.44213	-377.16284	683.72804	402.59526	-361.45975	759.95217	100.89681	-374.38152	721.69760	40.28311	-338.81016	878.46163	103.07381	-385.87627	905.09520	145.41672	-328.42608	267.50726	300.74170	-133.92181	250.02145	432.80173	-110.06433	191.73011	331.72256	-112.65017	610.18046	388.53449	-412.63264	653.83790	273.68588	-421.02645	415.45293	695.48506	-71.59967	386.64511	588.36377	-95.46365	318.50561	584.61729	-99.64184	306.30699	724.95657	-85.75550	274.44719	617.71517	-122.53646	561.51866	725.65286	-421.19104	612.57649	599.17825	-394.02938	460.74475	681.87174	-438.63468	505.94487	559.19929	-393.30282	511.20946	897.34649	-125.21459	315.72319	935.66266	-243.45312	547.11128	888.70917	-344.46577	333.45127	927.68439	-323.09909	420.30088	1369.79110	-254.61799	469.45321	1333.56847	-103.86146	478.39320	1332.34498	-392.09490	542.41124	1299.71283	-222.03174	545.26853	1300.02333	-261.24412	508.35303	1222.60576	-48.77289	455.10988	1003.44206	-42.53829	497.62188	1022.20105	5.77013	582.57297	978.19834	-5.14050	673.29606	868.02764	-33.57544	652.00525	851.36278	-3.06730	484.40615	1234.51466	-465.74474	439.43817	1012.99624	-474.30555	460.38465	1042.02386	-529.82289	528.98576	964.00544	-560.58436	580.13984	845.41206	-573.45108	548.61930	839.59465	-598.32440	423.01943	814.95958	-146.62086	462.81852	806.89876	-350.12625	436.41084	837.73341	-166.90326	468.14253	823.45350	-309.46756	
